<?xml version="1.0" encoding="iso-8859-1"?>
<!-- Generator: Adobe Illustrator 19.0.0, SVG Export Plug-In . SVG Version: 6.00 Build 0)  -->
<svg version="1.1" id="Layer_1" xmlns="http://www.w3.org/2000/svg" xmlns:xlink="http://www.w3.org/1999/xlink" x="0px" y="0px"
	 viewBox="0 0 512 512" style="enable-background:new 0 0 512 512;" xml:space="preserve">
<path style="fill:#ACD1FC;" d="M434.083,144.811H331.07c-17.499,0-31.68-14.18-31.68-31.68V10.119L434.083,144.811z"/>
<path style="fill:#518EF8;" d="M434.083,144.811v325.39c0,17.499-14.194,31.68-31.68,31.68H109.597
	c-17.499,0-31.68-14.18-31.68-31.68V41.799c0-17.499,14.18-31.68,31.68-31.68h189.794v103.013c0,17.499,14.18,31.68,31.68,31.68
	H434.083z"/>
<path style="fill:#333333;" d="M441.239,137.656L306.547,2.964C304.649,1.066,302.076,0,299.391,0H109.597
	C86.549,0,67.798,18.75,67.798,41.799v428.403c0,23.049,18.751,41.799,41.799,41.799h292.807c23.049,0,41.799-18.75,41.799-41.799
	v-325.39C444.202,142.128,443.136,139.553,441.239,137.656z M309.51,34.548l100.144,100.143H331.07
	c-11.889,0-21.559-9.671-21.559-21.56V34.548H309.51z M402.403,491.762H109.597c-11.889,0-21.56-9.671-21.56-21.56V41.799
	c0-11.888,9.673-21.56,21.56-21.56h179.675v92.893c0,23.047,18.75,41.799,41.797,41.799h92.895v315.271
	C423.964,482.091,414.291,491.762,402.403,491.762z"/>
<g>
	<path style="fill:#FFFFFF;" d="M336.939,277.25H175.047c-5.588,0-10.119-4.531-10.119-10.119s4.531-10.119,10.119-10.119h161.892
		c5.59,0,10.119,4.531,10.119,10.119S342.529,277.25,336.939,277.25z"/>
	<path style="fill:#FFFFFF;" d="M336.939,322.449H175.047c-5.588,0-10.119-4.531-10.119-10.119s4.531-10.119,10.119-10.119h161.892
		c5.59,0,10.119,4.531,10.119,10.119S342.529,322.449,336.939,322.449z"/>
	<path style="fill:#FFFFFF;" d="M336.939,367.647H175.047c-5.588,0-10.119-4.531-10.119-10.119s4.531-10.119,10.119-10.119h161.892
		c5.59,0,10.119,4.531,10.119,10.119S342.529,367.647,336.939,367.647z"/>
	<path style="fill:#FFFFFF;" d="M284.333,412.846H175.047c-5.588,0-10.119-4.531-10.119-10.119s4.531-10.119,10.119-10.119h109.286
		c5.59,0,10.119,4.531,10.119,10.119S289.923,412.846,284.333,412.846z"/>
</g>
<g>
</g>
<g>
</g>
<g>
</g>
<g>
</g>
<g>
</g>
<g>
</g>
<g>
</g>
<g>
</g>
<g>
</g>
<g>
</g>
<g>
</g>
<g>
</g>
<g>
</g>
<g>
</g>
<g>
</g>
</svg>
